<svg width="9" height="8" viewBox="0 0 9 8" fill="none" xmlns="http://www.w3.org/2000/svg">
<path d="M5 4C5.82843 3.17157 6 2 6 2C6 2 6.17157 3.17157 7 4C7.82843 4.82843 9 5 9 5C9 5 7.82843 5.17157 7 6C6.17157 6.82843 6 8 6 8C6 8 5.82843 6.82843 5 6C4.17157 5.17157 3 5 3 5C3 5 4.17157 4.82843 5 4Z" fill="white"/>
<path d="M3.66667 0.666667C3.94281 0.390524 4 0 4 0C4 0 4.05719 0.390524 4.33333 0.666667C4.60948 0.942809 5 1 5 1C5 1 4.60948 1.05719 4.33333 1.33333C4.05719 1.60948 4 2 4 2C4 2 3.94281 1.60948 3.66667 1.33333C3.39052 1.05719 3 1 3 1C3 1 3.39052 0.942809 3.66667 0.666667Z" fill="white"/>
<path d="M1.33333 2.33333C1.88562 1.78105 2 1 2 1C2 1 2.11438 1.78105 2.66667 2.33333C3.21895 2.88562 4 3 4 3C4 3 3.21895 3.11438 2.66667 3.66667C2.11438 4.21895 2 5 2 5C2 5 1.88562 4.21895 1.33333 3.66667C0.781049 3.11438 0 3 0 3C0 3 0.781049 2.88562 1.33333 2.33333Z" fill="white"/>
</svg>
